<svg width="568" height="173" viewBox="0 0 568 173" fill="none" xmlns="http://www.w3.org/2000/svg">
  <rect width="568" height="173" fill="#ECECEC"/>
  <path d="M49 131V74C49 47.5 70.5 26 97 26C123.5 26 145 47.5 145 74V131" stroke="#F97316" stroke-width="10" stroke-linecap="round"/>
  <path d="M14 97C56 89 74 50 98 50C124 50 145 93 184 105" stroke="#0E88B8" stroke-width="14" stroke-linecap="round"/>
  <path d="M16 97C55 90 74 56 99 56C123 56 145 98 183 110" stroke="#0E88B8" stroke-width="14" stroke-linecap="round" opacity="0.15"/>
  <path d="M152 33L156 41L164 45L156 49L152 57L148 49L140 45L148 41L152 33Z" fill="#F97316"/>
  <text x="222" y="78" font-family="Arial, Helvetica, sans-serif" font-size="56" font-weight="700" fill="#0C4E80">Swim</text>
  <text x="352" y="78" font-family="Arial, Helvetica, sans-serif" font-size="52" font-weight="500" fill="#F97316">for all</text>
</svg>